<svg width="183mm" height="76.11mm" version="1.1" viewBox="0 0 183 76.11" xml:space="preserve" xmlns="http://www.w3.org/2000/svg" xmlns:xlink="http://www.w3.org/1999/xlink"><defs><marker id="marker30" overflow="visible" markerHeight="1" markerWidth="1" orient="auto-start-reverse" preserveAspectRatio="xMidYMid" viewBox="0 0 1 1"><path transform="scale(.5)" d="m6 0c-3 1-7 3-9 5 0 0 0-4 2-5-2-1-2-5-2-5 2 2 6 4 9 5z" fill="context-stroke" fill-rule="evenodd" stroke="context-stroke" stroke-width="1pt"/></marker><marker id="marker28" overflow="visible" markerHeight="1" markerWidth="1" orient="auto-start-reverse" preserveAspectRatio="xMidYMid" viewBox="0 0 1 1"><path transform="scale(.5)" d="m6 0c-3 1-7 3-9 5 0 0 0-4 2-5-2-1-2-5-2-5 2 2 6 4 9 5z" fill="context-stroke" fill-rule="evenodd" stroke="context-stroke" stroke-width="1pt"/></marker><marker id="marker26" overflow="visible" markerHeight="1" markerWidth="1" orient="auto-start-reverse" preserveAspectRatio="xMidYMid" viewBox="0 0 1 1"><path transform="scale(.5)" d="m6 0c-3 1-7 3-9 5 0 0 0-4 2-5-2-1-2-5-2-5 2 2 6 4 9 5z" fill="context-stroke" fill-rule="evenodd" stroke="context-stroke" stroke-width="1pt"/></marker><marker id="marker24" overflow="visible" markerHeight="1" markerWidth="1" orient="auto-start-reverse" preserveAspectRatio="xMidYMid" viewBox="0 0 1 1"><path transform="scale(.5)" d="m6 0c-3 1-7 3-9 5 0 0 0-4 2-5-2-1-2-5-2-5 2 2 6 4 9 5z" fill="context-stroke" fill-rule="evenodd" stroke="context-stroke" stroke-width="1pt"/></marker><marker id="ArrowTriangleStylized" overflow="visible" markerHeight="1" markerWidth="1" orient="auto-start-reverse" preserveAspectRatio="xMidYMid" viewBox="0 0 1 1"><path transform="scale(.5)" d="m6 0c-3 1-7 3-9 5 0 0 0-4 2-5-2-1-2-5-2-5 2 2 6 4 9 5z" fill="context-stroke" fill-rule="evenodd" stroke="context-stroke" stroke-width="1pt"/></marker><linearGradient id="a" x1="3.217" x2="44.78" y1="15" y2="15" gradientUnits="userSpaceOnUse"><stop stop-color="#d93025" offset="0"/><stop stop-color="#ea4335" offset="1"/></linearGradient><linearGradient id="b" x1="20.72" x2="41.5" y1="47.68" y2="11.68" gradientUnits="userSpaceOnUse"><stop stop-color="#fcc934" offset="0"/><stop stop-color="#fbbc04" offset="1"/></linearGradient><linearGradient id="c" x1="26.6" x2="5.816" y1="46.5" y2="10.51" gradientUnits="userSpaceOnUse"><stop stop-color="#1e8e3e" offset="0"/><stop stop-color="#34a853" offset="1"/></linearGradient></defs><g transform="translate(-23.3 -68.83)"><rect x="87.24" y="69.2" width="118.7" height="75.38" rx="4" ry="4" fill="#ffec99" stroke="#000" stroke-linecap="round" stroke-linejoin="round" stroke-miterlimit="7.7" stroke-width=".7337" style="paint-order:normal"/><g transform="matrix(.4197 0 0 .4197 23.3 93.94)"><circle cx="24" cy="23.99" r="12" fill="#fff"/><path d="m3.215 36a24 24 0 1 0 8.785-32.78 24 24 0 0 0-8.785 32.78zm31.18-18a12 12 0 1 1-16.39-4.392 12 12 0 0 1 16.39 4.392z" fill="none"/><path d="m24 12h20.78a23.99 23.99 0 0 0-41.56 0.0029l10.39 18 0.0093-0.0024a11.99 11.99 0 0 1 10.38-18z" fill="url(#a)"/><circle cx="24" cy="24" r="9.5" fill="#1a73e8"/><path d="m34.39 30-10.39 18a23.99 23.99 0 0 0 20.78-36h-20.78l-0.0025 0.0093a11.98 11.98 0 0 1 10.39 17.99z" fill="url(#b)"/><path d="m13.61 30-10.39-18a23.99 23.99 0 0 0 20.78 35.99l10.39-18-0.0067-0.0068a11.99 11.99 0 0 1-20.78 7e-3z" fill="url(#c)"/></g><g transform="translate(5.902 -11.88)"><rect x="60.67" y="110.4" width="38.33" height="12.92" rx="3" ry="3" fill="#fff" stroke="#000" stroke-linecap="round" stroke-linejoin="round" stroke-miterlimit="7.7" stroke-width=".765"/><g transform="matrix(.3046 0 0 .3046 58.8 109.8)"><path id="a-3" d="m14.05 32.73v-19.06l19.06 19.06v-19.06" fill="none" stroke="#090" stroke-linecap="round" stroke-linejoin="round" stroke-width="5"/><path d="m44.69 11.19-0.6875 1.281-5.312 9.656-0.6875 1.219 0.6875 1.219 5.312 9.344 0.7188 1.281h13.91l0.6875-1.406 3.969-8 1.781-3.625h-4.031l-10.16 0.03125c-1.321-0.01868-2.536 1.179-2.536 2.5s1.215 2.519 2.536 2.5l6.125-0.03125-1.5 3.031h-7.875l-3.906-6.875 3.938-7.125h8.377l1.953 4.008h5.031l-3.172-7.602-0.6875-1.406h-12.97z" fill="#090"/><path d="m70.01 11.16c-1.309 0.01639-2.485 1.222-2.469 2.531v6.515h5v-6.515c0.01659-1.33-1.201-2.548-2.531-2.531z" fill="#090"/><use transform="matrix(-1 0 0 1 111.1 .04842)" width="744.09448" height="1052.3622" xlink:href="#a-3"/><g transform="translate(.1059 .3301)"><path id="b-6" d="m104.9 13.37 19.08 19.02" fill="none" stroke="#090" stroke-linecap="round" stroke-linejoin="round" stroke-width="5"/><use transform="matrix(-1 0 0 1 228.9 0)" width="744.09448" height="1052.3622" xlink:href="#b-6"/></g><path d="m70.01 35.2c-1.309-0.01639-2.485-1.222-2.469-2.531v-10.46h5v10.46c0.01659 1.33-1.201 2.548-2.531 2.531z" fill="#090"/></g></g><g transform="translate(29.79 .4381)"><rect x="132.6" y="126.3" width="38.33" height="12.92" rx="3" ry="3" fill="#e9ecef" stroke="#343a40" stroke-linecap="round" stroke-linejoin="round" stroke-miterlimit="7.7" stroke-width=".765"/><path d="m163.3 129.4v1.072h-2.304v5.64h-1.152v-5.64h-2.352v-1.072zm0.259 6.072c0.0812 0 0.1522 0.0292 0.2122 0.0877 0.0609 0.0585 0.0913 0.1284 0.0922 0.21-7.3e-4 0.0554-0.0149 0.1061-0.043 0.1515-0.0289 0.0462-0.0655 0.0823-0.1116 0.1085-0.0453 0.0269-0.0952 0.0408-0.1498 0.0408-0.0844 0-0.1561-0.0292-0.2162-0.0877-0.0601-0.0584-0.0898-0.1292-0.089-0.213-7.4e-4 -0.0815 0.0289-0.1515 0.089-0.21 0.0601-0.0584 0.1319-0.0877 0.2162-0.0877zm-22.83 0.6394-4.248-5.28v5.277h-1.152v-6.712h1.44l5.367 6.664 7e-5 -5.589-4.7e-4 -1.072h5.808v1.072h-4.655v1.725h3.744v1.072h-3.744v1.771h4.655v1.072zm10.91-2.853 0.755 0.9387-1.547 1.923h-1.512zm-0.792-3.855 1.949 2.421 1.943-2.413 1.508-2e-3 -2.696 3.353 2.7 3.354h-1.512l-5.4-6.712zm14.68 3.84h0.5105v1.967c-7.4e-4 0.1808-0.0399 0.3354-0.1163 0.4654-0.0773 0.13-0.1842 0.2292-0.3216 0.2992-0.1366 0.0692-0.2966 0.1046-0.4785 0.1046-0.1663 0-0.3153-0.03-0.448-0.0885-0.1327-0.0584-0.2381-0.1461-0.3153-0.2615-0.0781-0.1154-0.1164-0.2592-0.1164-0.4315h0.5113c7.3e-4 0.0754 0.0179 0.1408 0.0507 0.1954 0.0327 0.0546 0.078 0.0961 0.1358 0.1254 0.0585 0.0292 0.1257 0.0438 0.2013 0.0438 0.082 0 0.1522-0.0169 0.2092-0.0515 0.057-0.0338 0.1007-0.0846 0.1312-0.1523 0.0296-0.0669 0.0453-0.15 0.046-0.2484zm2.611 0.7692c-0.0124-0.1192-0.0671-0.2123-0.1623-0.2784-0.096-0.0669-0.2201-0.1-0.3724-0.1-0.1069 0-0.199 0.0162-0.2755 0.0477-0.0765 0.0323-0.1358 0.0754-0.1764 0.13-0.0405 0.0546-0.0609 0.1169-0.0625 0.1869 0 0.0585 0.014 0.1092 0.0414 0.1515 0.0273 0.0431 0.064 0.0792 0.1116 0.1084 0.0468 0.03 0.0991 0.0546 0.1561 0.0746 0.0577 0.02 0.1155 0.0369 0.1732 0.0508l0.2662 0.0654c0.107 0.0246 0.2108 0.0577 0.3099 0.1 0.0991 0.0415 0.1889 0.0946 0.2677 0.1584 0.0789 0.0638 0.1413 0.1408 0.1874 0.2308 0.046 0.09 0.0695 0.1954 0.0695 0.3169 0 0.1638-0.0421 0.3077-0.1273 0.4323-0.085 0.1238-0.2076 0.2207-0.3684 0.2907-0.16 0.0692-0.3536 0.1046-0.5815 0.1046-0.2201 0-0.4122-0.0338-0.5737-0.1015-0.1623-0.0669-0.2888-0.1654-0.3802-0.2946-0.0913-0.1292-0.1405-0.2869-0.1475-0.4723h0.5058c7e-3 0.0969 0.0383 0.1777 0.0913 0.243 0.0538 0.0646 0.1241 0.1123 0.21 0.1446 0.0867 0.0315 0.1834 0.0477 0.2904 0.0477 0.1116 0 0.21-0.0169 0.295-0.05 0.0843-0.0331 0.1506-0.0792 0.1983-0.1392 0.0484-0.0592 0.0726-0.1292 0.0734-0.2092-7.4e-4 -0.0731-0.0227-0.1338-0.0648-0.1815-0.0429-0.0477-0.1022-0.0877-0.178-0.12-0.0764-0.0323-0.1654-0.0615-0.2669-0.0869l-0.3231-0.0815c-0.2334-0.0592-0.4184-0.1492-0.5535-0.27-0.1358-0.1208-0.2029-0.2808-0.2029-0.4815 0-0.1646 0.0453-0.3092 0.1367-0.433 0.0905-0.1238 0.2146-0.22 0.3715-0.2884 0.1577-0.0692 0.3356-0.1031 0.5338-0.1031 0.2014 0 0.3778 0.0339 0.53 0.1031 0.1522 0.0685 0.2716 0.1638 0.3582 0.2854 0.0867 0.1215 0.1319 0.2607 0.1343 0.4184z" stroke-width=".06512"/></g><rect transform="translate(27.16 -3.942)" x="135.1" y="78.43" width="38.33" height="12.92" rx="3" ry="3" fill="#b2f2bb" stroke="#2f9e44" stroke-linecap="round" stroke-linejoin="round" stroke-miterlimit="7.7" stroke-width=".765"/><g transform="translate(27.16 -3.942)" fill="none"><g transform="matrix(.06639 0 0 .06639 139.7 80.07)" fill="#092e20"><g fill="#092e20">
	<g fill="#092e20">
		<path d="m51.46 0h23.87v110.5c-12.25 2.325-21.24 3.255-31 3.255-29.14-1e-3 -44.33-13.18-44.33-38.44 0-24.34 16.12-40.15 41.08-40.15 3.875 0 6.82 0.309 10.39 1.239zm0 55.62c-2.79-0.929-5.115-1.239-8.06-1.239-12.09 0-19.07 7.441-19.07 20.46 0 12.71 6.666 19.69 18.91 19.69 2.634 0 4.805-0.155 8.215-0.619z"/>
		<path d="m113.3 36.86v55.34c0 19.07-1.395 28.21-5.58 36.12-3.876 7.597-8.992 12.4-19.53 17.67l-22.17-10.54c10.54-4.96 15.66-9.299 18.91-15.97 3.411-6.82 4.497-14.73 4.497-35.5v-47.12zm-23.87-36.74h23.87v24.49h-23.87z"/>
		<path d="m127.7 42.29c10.54-4.959 20.62-7.129 31.62-7.129 12.25 0 20.31 3.254 23.87 9.61 2.014 3.565 2.634 8.215 2.634 18.14v48.52c-10.7 1.55-24.18 2.636-34.1 2.636-20 0-28.99-6.978-28.99-22.48 0-16.74 11.94-24.49 41.23-26.97v-5.27c0-4.34-2.17-5.889-8.216-5.889-8.835 0-18.76 2.48-28.06 7.286v-18.45zm37.36 37.98c-15.81 1.55-20.93 4.031-20.93 10.23 0 4.65 2.946 6.82 9.456 6.82 3.566 0 6.82-0.309 11.47-1.084z"/>
		<path d="m197.5 40.58c14.1-3.72 25.73-5.424 37.51-5.424 12.25 0 21.08 2.789 26.35 8.215 4.96 5.114 6.509 10.69 6.509 22.63v46.81h-23.87v-45.88c0-9.145-3.1-12.56-11.62-12.56-3.255 0-6.2 0.31-11.01 1.705v56.73h-23.87z"/>
		<path d="m277.1 125.8c8.372 4.34 16.74 6.354 25.58 6.354 15.66 0 22.32-6.354 22.32-21.55v-0.465c-4.65 2.324-9.301 3.255-15.5 3.255-20.93 0-34.26-13.8-34.26-35.65 0-27.13 19.69-42.47 54.56-42.47 10.23 0 19.69 1.084 31.16 3.409l-8.174 17.22c-6.356-1.24-0.509-0.166-5.312-0.631v2.481l0.309 10.07 0.154 13.02c0.155 3.254 0.155 6.51 0.311 9.765v6.511c0 20.46-1.705 30.07-6.82 37.98-7.441 11.63-20.31 17.36-38.6 17.36-9.301 0-17.36-1.395-25.73-4.651v-22.01zm47.43-71.31h-0.774-1.706c-4.649-0.155-10.07 1.084-13.8 3.409-5.734 3.256-8.681 9.147-8.681 17.52 0 11.94 5.892 18.76 16.43 18.76 3.255 0 5.891-0.621 8.99-1.55v-8.215c0-2.79-0.154-5.892-0.154-9.146l-0.154-11-0.156-7.906v-1.861z"/>
		<path d="m398.1 34.85c23.87 0 38.44 15.04 38.44 39.37 0 24.96-15.19 40.61-39.37 40.61-23.87 0-38.6-15.04-38.6-39.22 1e-3 -25.11 15.19-40.77 39.53-40.77zm-0.467 60.76c9.147 0 14.57-7.596 14.57-20.77 0-13.02-5.271-20.77-14.42-20.77-9.457 0-14.88 7.597-14.88 20.77 1e-3 13.18 5.427 20.77 14.73 20.77z"/>
	</g>
</g></g></g><g fill="#000000" stroke-linecap="round" stroke-linejoin="round" stroke-miterlimit="7.7" stroke-width=".2"><g font-family="sans-serif"><text x="105.76678" y="80.973915" font-size="4.233px" style="font-variant-caps:normal;font-variant-east-asian:normal;font-variant-ligatures:normal;font-variant-numeric:normal;paint-order:normal" xml:space="preserve"><tspan x="105.76678" y="80.973915" fill="#000000" font-family="sans-serif" font-size="4.233px" stroke-width=".2" style="font-variant-caps:normal;font-variant-east-asian:normal;font-variant-ligatures:normal;font-variant-numeric:normal">Next.js Pages</tspan></text><text x="162.36858" y="102.46098" font-size="3.528px" style="font-variant-caps:normal;font-variant-east-asian:normal;font-variant-ligatures:normal;font-variant-numeric:normal;paint-order:normal" xml:space="preserve"><tspan x="162.36858" y="102.46098" style="font-variant-caps:normal;font-variant-east-asian:normal;font-variant-ligatures:normal;font-variant-numeric:normal">Request</tspan><tspan x="162.36858" y="106.8707" style="font-variant-caps:normal;font-variant-east-asian:normal;font-variant-ligatures:normal;font-variant-numeric:normal">for page</tspan><tspan x="162.36858" y="111.28043" style="font-variant-caps:normal;font-variant-east-asian:normal;font-variant-ligatures:normal;font-variant-numeric:normal">(HTML)</tspan></text><text x="191.11226" y="103.66384" font-size="3.528px" style="font-variant-caps:normal;font-variant-east-asian:normal;font-variant-ligatures:normal;font-variant-numeric:normal;paint-order:normal" xml:space="preserve"><tspan x="191.11226" y="103.66384" style="font-variant-caps:normal;font-variant-east-asian:normal;font-variant-ligatures:normal;font-variant-numeric:normal">API</tspan><tspan x="191.11226" y="108.07356" style="font-variant-caps:normal;font-variant-east-asian:normal;font-variant-ligatures:normal;font-variant-numeric:normal">Call</tspan></text></g><g><text x="105.37428" y="87.244484" font-family="Monospace" font-size="3.175px" style="font-variant-caps:normal;font-variant-east-asian:normal;font-variant-ligatures:normal;font-variant-numeric:normal;paint-order:normal" xml:space="preserve"><tspan x="105.37428" y="87.244484" style="font-variant-caps:normal;font-variant-east-asian:normal;font-variant-ligatures:normal;font-variant-numeric:normal">/my/page</tspan><tspan x="105.37428" y="91.213234" style="font-variant-caps:normal;font-variant-east-asian:normal;font-variant-ligatures:normal;font-variant-numeric:normal">/other/page</tspan></text><text x="89.703987" y="122.13015" font-family="sans-serif" font-size="4.233px" style="font-variant-caps:normal;font-variant-east-asian:normal;font-variant-ligatures:normal;font-variant-numeric:normal;paint-order:normal" xml:space="preserve"><tspan x="89.703987" y="122.13015" fill="#000000" font-family="sans-serif" font-size="4.233px" stroke-width=".2" style="font-variant-caps:normal;font-variant-east-asian:normal;font-variant-ligatures:normal;font-variant-numeric:normal">Next.js Internals</tspan></text><text x="89.89225" y="128.24583" font-family="Monospace" font-size="3.175px" style="font-variant-caps:normal;font-variant-east-asian:normal;font-variant-ligatures:normal;font-variant-numeric:normal;paint-order:normal" xml:space="preserve"><tspan x="89.89225" y="128.24583" style="font-variant-caps:normal;font-variant-east-asian:normal;font-variant-ligatures:normal;font-variant-numeric:normal">/_next/static/chunks/30...4.js</tspan><tspan x="89.89225" y="132.21458" style="font-variant-caps:normal;font-variant-east-asian:normal;font-variant-ligatures:normal;font-variant-numeric:normal">/_next/static/css/d2a...af1.css</tspan><tspan x="89.89225" y="136.18333" style="font-variant-caps:normal;font-variant-east-asian:normal;font-variant-ligatures:normal;font-variant-numeric:normal">/_next/data/YCo...Yzl/fa/page.json</tspan><tspan x="89.89225" y="140.15208" style="font-variant-caps:normal;font-variant-east-asian:normal;font-variant-ligatures:normal;font-variant-numeric:normal">/_next/...</tspan></text></g></g><g fill="#092e20" stroke-linecap="round" stroke-linejoin="round" stroke-miterlimit="7.7"><path d="m43.98 104.4h19.34" marker-end="url(#ArrowTriangleStylized)" stroke="#868e96" stroke-width=".6764" style="paint-order:normal"/><g stroke="#3c3c3c"><path d="m105.8 101.6 53.4-19.84" marker-end="url(#marker24)" stroke-width=".6905" style="paint-order:normal"/><path d="m105.8 108.3 53.62 21.8" marker-end="url(#marker26)" stroke-width=".6607" style="paint-order:normal"/><path d="m178.4 88.29v35.17" marker-end="url(#marker28)" stroke-width=".6753" style="paint-order:normal"/><path d="m189.6 125.8v-35.34" marker-end="url(#marker30)" stroke-width=".6883" style="paint-order:normal"/></g></g></g></svg>
